<?xml version="1.0"?>
<svg xmlns="http://www.w3.org/2000/svg" xmlns:xlink="http://www.w3.org/1999/xlink" xmlns:svgjs="http://svgjs.com/svgjs" version="1.1" width="512" height="512" x="0" y="0" viewBox="0 0 512 512" style="enable-background:new 0 0 512 512" xml:space="preserve" class=""><g transform="matrix(-1,0,0,1,511.99999237060547,0)">
<g xmlns="http://www.w3.org/2000/svg">
	<g>
		<g>
			<path d="M101.823,324.938c-3.443,0-6.693,1.586-8.812,4.301c-5.995,7.68-35.904,47.071-35.904,68.363     c0,24.656,20.06,44.716,44.716,44.716s44.716-20.06,44.716-44.716c0-21.292-29.908-60.683-35.904-68.363     C108.515,326.525,105.266,324.938,101.823,324.938z M101.823,419.96c-12.328,0-22.358-10.03-22.358-22.358     c0-7.275,10.462-25.735,22.358-42.68c11.896,16.945,22.358,35.405,22.358,42.68C124.181,409.93,114.151,419.96,101.823,419.96z" fill="#03abe1" data-original="#000000" style="" class=""/>
			<path d="M454.148,445.038V92.787V11.18c0-3.13-1.312-6.118-3.617-8.234c-2.306-2.116-5.394-3.175-8.513-2.904L115.562,27.949     c-20.263,1.03-36.097,17.667-36.097,37.985c0,20.972,17.063,38.032,38.033,38.032H314.41v39.127H59.716     c-19.52,0-35.401,15.881-35.401,35.401v54.031c0,6.173,5.006,11.179,11.179,11.179h10.433v44.716     c0,6.173,5.006,11.179,11.179,11.179h89.432c6.173,0,11.179-5.006,11.179-11.179v-44.716H314.41v201.334     c-18.724,1.388-33.537,17.055-33.537,36.127v8.477H232.99c-6.173,0-11.179,5.006-11.179,11.179     c0,6.173,5.006,11.179,11.179,11.179h59.062h16.695h167.759c6.173,0,11.179-5.006,11.179-11.179v-19.656     C487.685,462.093,472.872,446.425,454.148,445.038z M117.498,81.608c-8.644,0-15.675-7.032-15.675-15.675     c0-8.408,6.58-15.286,14.98-15.66c0.152-0.007,0.303-0.017,0.455-0.029l314.532-26.888v58.252H325.588H117.498z M431.79,103.966     v340.96h-95.022V232.525v-78.253v-50.306H431.79z M135.36,277.241H68.285v-33.537h67.074V277.241z M146.539,221.346H57.106     H46.673v-42.853c0-7.193,5.85-13.043,13.043-13.043H314.41v55.895H146.539z M465.326,489.642h-156.58h-5.516v-8.477     c0-7.654,6.227-13.881,13.881-13.881h8.477h117.38h8.477c7.654,0,13.881,6.227,13.881,13.881V489.642z" fill="#03abe1" data-original="#000000" style="" class=""/>
			<path d="M185.032,489.642h-14.646c-6.173,0-11.179,5.006-11.179,11.179c0,6.173,5.006,11.179,11.179,11.179h14.646     c6.173,0,11.179-5.006,11.179-11.179C196.211,494.648,191.207,489.642,185.032,489.642z" fill="#03abe1" data-original="#000000" style="" class=""/>
			<path d="M398.783,333.807c6.173,0,11.179-5.006,11.179-11.179v-68.275c0-6.174-5.005-11.179-11.179-11.179     c-6.173,0-11.179,5.006-11.179,11.179v68.275C387.604,328.801,392.61,333.807,398.783,333.807z" fill="#03abe1" data-original="#000000" style="" class=""/>
			<path d="M398.783,219.186c6.173,0,11.179-5.006,11.179-11.179v-18.632c0-6.174-5.005-11.179-11.179-11.179     c-6.173,0-11.179,5.006-11.179,11.179v18.632C387.604,214.18,392.61,219.186,398.783,219.186z" fill="#03abe1" data-original="#000000" style="" class=""/>
		</g>
	</g>
</g>
<g xmlns="http://www.w3.org/2000/svg">
</g>
<g xmlns="http://www.w3.org/2000/svg">
</g>
<g xmlns="http://www.w3.org/2000/svg">
</g>
<g xmlns="http://www.w3.org/2000/svg">
</g>
<g xmlns="http://www.w3.org/2000/svg">
</g>
<g xmlns="http://www.w3.org/2000/svg">
</g>
<g xmlns="http://www.w3.org/2000/svg">
</g>
<g xmlns="http://www.w3.org/2000/svg">
</g>
<g xmlns="http://www.w3.org/2000/svg">
</g>
<g xmlns="http://www.w3.org/2000/svg">
</g>
<g xmlns="http://www.w3.org/2000/svg">
</g>
<g xmlns="http://www.w3.org/2000/svg">
</g>
<g xmlns="http://www.w3.org/2000/svg">
</g>
<g xmlns="http://www.w3.org/2000/svg">
</g>
<g xmlns="http://www.w3.org/2000/svg">
</g>
</g></svg>
